<?xml version="1.0" encoding="UTF-8" standalone="no"?>
<svg
   xmlns:dc="http://purl.org/dc/elements/1.1/"
   xmlns:cc="http://creativecommons.org/ns#"
   xmlns:rdf="http://www.w3.org/1999/02/22-rdf-syntax-ns#"
   xmlns:svg="http://www.w3.org/2000/svg"
   xmlns="http://www.w3.org/2000/svg"
   xmlns:sodipodi="http://sodipodi.sourceforge.net/DTD/sodipodi-0.dtd"
   xmlns:inkscape="http://www.inkscape.org/namespaces/inkscape"
   id="svg3390"
   preserveAspectRatio="xMidYMid meet"
   viewBox="0 0 409.6 409.6"
   height="512"
   width="512"
   version="1.0"
   inkscape:version="0.91 r13725"
   sodipodi:docname="logo.svg"
   inkscape:export-filename="/home/aileen/nx-python/logo2.png"
   inkscape:export-xdpi="90"
   inkscape:export-ydpi="90">
  <sodipodi:namedview
     pagecolor="#ffffff"
     bordercolor="#666666"
     borderopacity="1"
     objecttolerance="10"
     gridtolerance="10"
     guidetolerance="10"
     inkscape:pageopacity="0"
     inkscape:pageshadow="2"
     inkscape:window-width="1366"
     inkscape:window-height="717"
     id="namedview61"
     showgrid="false"
     inkscape:zoom="0.4609375"
     inkscape:cx="256"
     inkscape:cy="256"
     inkscape:window-x="0"
     inkscape:window-y="0"
     inkscape:window-maximized="1"
     inkscape:current-layer="svg3390" />
  <defs
     id="defs3404" />
  <metadata
     id="metadata3392">
Created by potrace 1.13, written by Peter Selinger 2001-2015
<rdf:RDF>
  <cc:Work
     rdf:about="">
    <dc:format>image/svg+xml</dc:format>
    <dc:type
       rdf:resource="http://purl.org/dc/dcmitype/StillImage" />
    <dc:title />
  </cc:Work>
</rdf:RDF>
</metadata>
  <path
     id="path3525"
     d=""
     style="fill:#3772a3;fill-opacity:1" />
  <path
     id="path4337"
     d=""
     style="fill:#3772a3;fill-opacity:1" />
  <path
     id="path4339"
     d=""
     style="fill:#3772a3;fill-opacity:1" />
  <path
     id="path4345"
     d=""
     style="fill:#3772a3;fill-opacity:1" />
  <path
     id="path4349"
     d=""
     style="fill:#3772a3;fill-opacity:1" />
  <path
     id="path4353"
     d=""
     style="fill:#3772a3;fill-opacity:1" />
  <path
     id="path4355"
     d=""
     style="fill:#3772a3;fill-opacity:1" />
  <path
     id="path4357"
     d=""
     style="fill:#3772a3;fill-opacity:1" />
  <path
     id="path4379"
     d=""
     style="fill:#3772a3;fill-opacity:1" />
  <path
     id="path4387"
     d=""
     style="fill:#3772a3;fill-opacity:1" />
  <path
     id="path4389"
     d=""
     style="fill:#3772a3;fill-opacity:1" />
  <path
     id="path4391"
     d=""
     style="fill:#3772a3;fill-opacity:1" />
  <path
     id="path4399"
     d=""
     style="fill:#3772a3;fill-opacity:1" />
  <path
     id="path4401"
     d=""
     style="fill:#3772a3;fill-opacity:1" />
  <path
     id="path4405"
     d=""
     style="fill:#3772a3;fill-opacity:1" />
  <path
     id="path4407"
     d=""
     style="fill:#3772a3;fill-opacity:1" />
  <path
     id="path4409"
     d=""
     style="fill:#3772a3;fill-opacity:1" />
  <path
     id="path4419"
     d=""
     style="fill:#3772a3;fill-opacity:1" />
  <path
     id="path4421"
     d=""
     style="fill:#3772a3;fill-opacity:1" />
  <g
     transform="translate(0,-140.4)"
     style="display:inline;fill:#333333"
     id="layer2">
    <rect
       y="140.39999"
       x="0"
       height="409.60001"
       width="409.60001"
       id="rect4498"
       style="fill:#333333;fill-opacity:0.99215686" />
  </g>
  <g
     transform="translate(0,-140.4)"
     style="display:inline"
     id="layer3">
    <path
       id="path3521"
       d="m 153.69672,475.0172 -24.01394,-0.38337 -4.9684,-1.51366 c -20.30187,-6.18507 -34.729989,-18.29196 -43.340405,-36.36769 -4.726079,-9.92139 -5.538988,-13.6616 -6.148253,-28.28828 -0.294125,-7.06107 -0.431635,-39.77413 -0.30979,-73.69796 0.236256,-65.77805 0.167782,-64.19731 3.180469,-73.42194 7.543153,-23.09659 27.618649,-40.72666 51.586379,-45.30255 5.5629,-1.06206 68.88524,-1.13045 69.9425,-0.0755 0.95348,0.95137 1.07825,257.50079 0.12569,258.45349 -0.83794,0.83808 -17.46892,1.05385 -46.05425,0.59751 z m 25.67007,-129.76211 0,-109.58086 -7.05684,-0.15464 c -12.81238,-0.28077 -39.55303,0.8223 -42.96852,1.77246 -15.04305,4.18491 -27.13718,16.18882 -32.039371,31.80033 l -1.294002,4.12088 0.0048,72.04183 0.0048,72.04182 1.776303,5.24442 c 5.19024,15.32382 16.78929,26.26135 32.57906,30.721 2.51336,0.70985 7.25412,0.97667 22.77175,1.28154 10.77867,0.21177 21.08811,0.36413 22.90985,0.33856 l 3.31227,-0.0465 0,-109.58085 z"
       style="fill:#3772a3;fill-opacity:1" />
    <path
       id="path3523"
       d="m 138.23946,474.47248 c -9.69379,-0.30861 -10.47935,-0.41752 -15.45724,-2.14311 -19.73015,-6.8395 -33.303438,-18.80134 -41.683958,-36.73516 -3.231849,-6.91597 -4.521301,-11.85048 -5.214096,-19.95344 -0.711062,-8.31662 -0.755881,-129.38656 -0.05191,-140.21932 0.375447,-5.77739 0.872089,-8.89668 1.967136,-12.35509 6.727531,-21.24716 22.66426,-37.54622 43.53235,-44.5221 4.93507,-1.64971 7.29974,-2.10222 13.30105,-2.5453 8.58655,-0.63394 64.02934,-0.40975 64.70011,0.26163 0.60083,0.60138 0.60088,257.38705 5e-5,257.98878 -0.53419,0.53501 -46.07323,0.70131 -61.09349,0.22311 z m 41.40336,-129.21739 0,-109.85688 -13.09326,0 c -14.30326,0 -32.5088,0.83384 -36.86678,1.68855 -3.97081,0.77878 -13.27362,5.57304 -16.95458,8.73765 -7.23227,6.21774 -11.97114,13.09846 -15.153637,22.00269 l -1.842527,5.15517 0,72.18967 0,72.18967 1.659339,4.5467 c 0.912634,2.50068 2.308628,5.83979 3.102215,7.42025 5.37027,10.69521 15.83579,19.57929 27.53305,23.37255 4.03177,1.30744 5.54611,1.46677 17.38941,1.82962 7.13518,0.2186 17.75513,0.43881 23.5999,0.48935 l 10.62687,0.0919 0,-109.85687 z"
       style="fill:#3772a3;fill-opacity:1" />
    <path
       id="path3527"
       d="m 133.18405,316.36455 c -11.46411,-3.22491 -19.18801,-15.63763 -17.10149,-27.48299 1.80314,-10.23661 9.69014,-18.08818 19.99274,-19.90295 12.54572,-2.20989 25.21892,7.21587 27.59754,20.5258 1.80129,10.0794 -3.78328,20.3319 -13.76087,25.26309 -3.65201,1.80492 -4.58919,2.02767 -9.11365,2.16608 -2.9686,0.0908 -6.10072,-0.14327 -7.61427,-0.56903 z"
       style="fill:#3772a3;fill-opacity:1" />
    <path
       id="path4329"
       d="m 116.349,300.27367 c -0.32759,-0.85885 -0.59271,-2.34375 -0.7253,-4.06213 -0.22996,-2.98077 -0.16258,-5.36343 0.21765,-7.69574 0.82194,-5.04171 3.01331,-9.35759 6.5277,-12.85626 1.85175,-1.84345 3.92052,-3.277 6.74446,-4.67353 3.77426,-1.8665 6.62546,-2.56089 10.51517,-2.56089 2.74481,0 5.10863,0.38266 7.66071,1.24011 5.20789,1.74978 9.74979,5.23657 12.81324,9.83666 l 0.36123,0.54242 -0.003,0.41072 c -0.002,0.33708 -0.0133,0.39432 -0.061,0.3193 -1.3401,-2.1074 -2.31211,-3.33767 -3.86199,-4.88804 -1.31564,-1.31608 -2.46413,-2.26471 -3.90564,-3.22598 -5.05048,-3.36792 -10.9018,-4.67374 -16.56567,-3.69689 -3.93712,0.67904 -7.82479,2.39661 -10.97873,4.85041 -3.76625,2.93019 -6.58529,6.92084 -8.10096,11.46778 -0.84458,2.53371 -1.26537,5.03882 -1.2663,7.53873 -6.7e-4,2.22823 0.38825,4.7975 1.05031,6.93561 0.0926,0.29895 0.16831,0.56794 0.16831,0.59774 0,0.0332 -0.10455,0.0542 -0.26958,0.0542 -0.24915,0 -0.27345,-0.0102 -0.32076,-0.13418 z"
       style="fill:#3772a3;fill-opacity:1" />
    <path
       id="path4331"
       d="m 116.77452,299.63935 c -1.03072,-3.49576 -1.27066,-7.03744 -0.71154,-10.50298 0.39053,-2.42073 1.21502,-4.93859 2.34169,-7.15124 2.36471,-4.64407 6.11952,-8.37317 10.78203,-10.70824 2.5927,-1.29846 5.21878,-2.08824 8.22184,-2.47268 0.96538,-0.12358 3.6869,-0.12376 4.71838,-3.4e-4 7.36698,0.88161 13.93792,5.14958 18.0781,11.74211 l 0.25884,0.41218 0,9.72485 0,9.72484 -21.73138,0 -21.73137,0 -0.22659,-0.7685 z"
       style="fill:#3772a3;fill-opacity:1" />
    <path
       id="path4333"
       d="m 119.70988,279.65662 c 0.009,-0.0163 0.21263,-0.3208 0.27162,-0.40691 0.65836,-0.96099 1.36493,-1.85158 2.13679,-2.69331 0.29847,-0.32549 0.70099,-0.74186 0.71716,-0.74186 0.006,0 -0.026,0.0354 -0.10514,0.11659 -0.39936,0.40943 -0.69654,0.73014 -1.00902,1.08884 -0.68682,0.78845 -1.30902,1.60231 -1.88768,2.46912 -0.0625,0.0937 -0.11673,0.17101 -0.1204,0.17184 -0.005,6.8e-4 -0.005,-3.6e-4 -0.004,-0.005 z"
       style="fill:#3772a3;fill-opacity:1" />
    <path
       id="path4335"
       d="m 119.11671,279.65955 c 0,-0.002 0.0221,-0.0365 0.0489,-0.0788 0.51916,-0.81477 1.1055,-1.61493 1.72964,-2.36032 0.39001,-0.46577 0.71629,-0.82626 1.21678,-1.3443 l 0.0603,-0.0625 0.0188,0.002 0.0187,0.002 -0.10499,0.10802 c -0.92633,0.95303 -1.72946,1.92685 -2.46123,2.98429 -0.14136,0.20426 -0.40949,0.60842 -0.48141,0.72562 -0.015,0.0245 -0.0179,0.0269 -0.031,0.0269 -0.008,0 -0.0144,-6.7e-4 -0.0144,-0.002 z"
       style="fill:#3772a3;fill-opacity:1" />
    <path
       id="path4341"
       d="m 120.53154,278.48035 c 0,-0.002 0.0757,-0.10256 0.13217,-0.17716 0.33793,-0.44625 0.68367,-0.87245 1.03532,-1.27624 l 0.0445,-0.051 0.007,0 0.007,0 -0.005,0.005 c -0.003,0.003 -0.0246,0.0284 -0.0487,0.0561 -0.37715,0.43266 -0.75741,0.90329 -1.1094,1.373 -0.0513,0.0685 -0.053,0.0705 -0.0585,0.0705 -0.003,0 -0.005,-3.7e-4 -0.005,-6.7e-4 z"
       style="fill:#3772a3;fill-opacity:1" />
    <path
       id="path4343"
       d="m 120.53154,278.48007 c 0,-0.002 0.14072,-0.18886 0.20844,-0.27735 0.30856,-0.40325 0.62901,-0.79647 0.94791,-1.16312 l 0.0554,-0.0637 0.007,0 0.007,0 -0.004,0.005 c -0.002,0.003 -0.0237,0.0275 -0.0479,0.0553 -0.37814,0.43331 -0.76327,0.91048 -1.13129,1.40165 -0.0313,0.0418 -0.0328,0.0435 -0.0383,0.0435 -0.003,0 -0.005,-4.3e-4 -0.005,-0.002 z"
       style="fill:#3772a3;fill-opacity:1" />
    <path
       id="path4347"
       d="m 137.51453,317.19051 c -3.01881,-0.15603 -4.20655,-0.39363 -6.37727,-1.27577 -1.0196,-0.41434 -0.49342,-0.36396 0.72793,0.0697 1.61342,0.57287 2.74891,0.77323 5.34912,0.94383 2.74356,0.18001 6.80561,-0.0137 8.41557,-0.4011 1.75095,-0.42145 4.88964,-1.88082 7.00123,-3.25531 3.28717,-2.13969 6.28432,-5.22876 8.23772,-8.49032 1.18983,-1.98666 2.23814,-4.7219 2.7597,-7.20062 0.40657,-1.93215 0.50664,-5.28284 0.21645,-7.24745 -0.42564,-2.88168 -1.6549,-6.53902 -2.92776,-8.71084 -0.31228,-0.53282 -0.4268,-0.86182 -0.36277,-1.04218 0.12369,-0.34836 1.81748,3.08985 2.40845,4.88889 2.53061,7.70356 1.29521,15.49468 -3.47759,21.93175 -0.99974,1.34834 -2.66634,3.10308 -4.01895,4.23146 -3.00439,2.50636 -7.46179,4.67945 -10.95921,5.34291 -1.4068,0.26686 -4.28024,0.35523 -6.99262,0.21504 z"
       style="fill:#3772a3;fill-opacity:1" />
    <path
       id="path4351"
       d="m 124.68553,312.11949 c -1.51615,-1.21439 -3.60531,-3.41686 -4.71912,-4.97508 -0.85777,-1.20002 -3.4445,-6.08783 -3.4445,-6.50865 0,-0.10858 0.0948,-0.17769 0.2111,-0.15385 0.12761,0.0262 0.43449,0.59962 0.77601,1.45009 1.43577,3.57538 4.12725,7.36609 6.84047,9.63414 1.70069,1.42164 1.7468,1.46364 1.60742,1.46407 -0.0736,2.4e-4 -0.64572,-0.40959 -1.27138,-0.91072 z"
       style="fill:#3772a3;fill-opacity:1" />
    <path
       id="path4359"
       d="m 129.73394,315.30688 c -0.9934,-0.48813 -1.49262,-0.75408 -2.22493,-1.18527 -0.78611,-0.46289 -1.99739,-1.26584 -1.96237,-1.30086 0.009,-0.009 0.0964,0.0377 0.19425,0.10362 0.0979,0.066 0.19703,0.11988 0.22027,0.11988 0.0908,0 0.034,-0.0993 -0.14335,-0.25083 -0.1021,-0.0872 -0.17883,-0.16537 -0.17053,-0.17369 0.008,-0.008 0.15582,0.0886 0.32782,0.21541 1.48569,1.09504 3.19642,2.05697 4.83699,2.71979 0.24336,0.0983 0.43714,0.18409 0.43064,0.19059 -0.007,0.006 -0.1294,-0.019 -0.27312,-0.0566 -0.28251,-0.074 -0.38251,-0.0845 -0.38251,-0.0401 0,0.0156 0.0338,0.0446 0.0752,0.0646 0.0445,0.0214 0.0547,0.0365 0.0251,0.0368 -0.0276,2.7e-4 -0.45669,-0.19926 -0.95354,-0.44338 z"
       style="fill:#3772a3;fill-opacity:1" />
    <path
       id="path4361"
       d="m 139.23584,317.29566 c -0.44713,-0.0169 -0.27899,-0.023 0.78626,-0.0287 2.83637,-0.015 4.13584,-0.14073 5.65431,-0.54693 3.4313,-0.9179 7.36605,-2.98668 10.01691,-5.2666 0.85499,-0.73534 2.07076,-1.96048 2.9036,-2.92593 0.88119,-1.02149 1.77385,-2.29607 2.53069,-3.6134 0.30732,-0.53494 0.92187,-1.73309 1.08111,-2.10782 0.0481,-0.11306 0.0826,-0.16144 0.0896,-0.12546 0.0157,0.0807 -0.71431,1.55698 -1.11252,2.25001 -0.82031,1.42754 -1.82399,2.83075 -2.90768,4.06506 -0.7866,0.89596 -2.1362,2.18017 -3.1165,2.96551 -2.40455,1.92634 -5.12715,3.39597 -8.1434,4.39569 -1.61031,0.53373 -2.62664,0.76072 -3.98493,0.89 -0.57695,0.0549 -2.85769,0.0841 -3.79741,0.0485 z"
       style="fill:#3772a3;fill-opacity:1" />
    <path
       id="path4363"
       d="m 136.12431,317.15643 c -1.37316,-0.10118 -2.47991,-0.29208 -3.41267,-0.58861 -0.43558,-0.13848 -1.39924,-0.51277 -1.37713,-0.53488 0.008,-0.008 0.21643,0.0595 0.46209,0.15101 1.55943,0.58121 2.63797,0.80322 4.64555,0.95628 0.37201,0.0284 0.4879,0.0445 0.31785,0.0439 -0.14722,-3.6e-4 -0.43327,-0.0129 -0.63569,-0.0277 z"
       style="fill:#3772a3;fill-opacity:1" />
    <path
       id="path4365"
       d="m 137.73027,317.19089 c -2.43949,-0.12472 -3.68086,-0.30185 -5.00945,-0.71479 -0.77748,-0.24165 -2.103,-0.76366 -2.05669,-0.80997 0.0344,-0.0344 0.34961,0.0532 1.22781,0.3407 0.46924,0.15365 0.98867,0.31667 1.15429,0.36228 1.49045,0.41051 3.72183,0.62435 6.51475,0.62435 2.97799,0 5.21851,-0.19664 6.5026,-0.57071 1.9245,-0.56061 5.09626,-2.11352 7.02364,-3.43881 3.14946,-2.16558 5.94602,-5.10925 7.79784,-8.208 0.33317,-0.5575 0.95879,-1.79488 1.22138,-2.41569 l 0.18158,-0.42929 0.01,0.30091 0.01,0.30091 -0.29506,0.63025 c -0.79981,1.70835 -1.94794,3.53873 -3.10258,4.94625 -0.99401,1.21169 -2.38982,2.62799 -3.49703,3.54834 -2.66146,2.21235 -6.66165,4.2604 -9.92012,5.07899 -0.97739,0.24554 -1.47886,0.32483 -2.69332,0.42586 -0.5626,0.0468 -4.29939,0.0678 -5.0688,0.0284 z"
       style="fill:#3772a3;fill-opacity:1" />
    <path
       id="path4367"
       d="m 137.99792,317.20549 c -2.81811,-0.13905 -4.10157,-0.32704 -5.54414,-0.81209 -0.21733,-0.0731 -0.42586,-0.1242 -0.46841,-0.11484 -0.0479,0.0105 -0.0617,0.006 -0.0368,-0.0119 0.0256,-0.0185 -0.1795,-0.1161 -0.57485,-0.27356 -1.13326,-0.45136 -0.91134,-0.45493 0.45994,-0.007 1.33033,0.43416 1.73288,0.5363 2.70148,0.6855 1.26294,0.19455 2.59673,0.28727 4.46657,0.31051 2.6464,0.0328 4.91571,-0.10715 6.3416,-0.39138 1.82054,-0.36289 5.11665,-1.87832 7.46865,-3.4338 3.0493,-2.01663 5.89205,-4.91428 7.81476,-7.9657 0.50151,-0.7959 1.1322,-2.01135 1.51415,-2.91802 l 0.14721,-0.34942 0.01,0.30684 0.01,0.30683 -0.1896,0.41061 c -0.10428,0.22585 -0.26377,0.55883 -0.35443,0.73996 -0.0906,0.18115 -0.14893,0.31953 -0.12949,0.30752 0.0449,-0.0277 0.045,0.002 2e-4,0.0856 -0.0193,0.0361 -0.0493,0.0569 -0.0665,0.0463 -0.0177,-0.011 -0.0218,0.005 -0.009,0.038 0.0141,0.0368 0.009,0.0493 -0.0141,0.035 -0.0218,-0.0135 -0.10617,0.10751 -0.21203,0.30399 -0.46438,0.86174 -1.25628,2.08848 -1.90056,2.94413 -1.07554,1.42841 -2.75681,3.18138 -4.11914,4.29482 -2.87032,2.34593 -7.06283,4.41635 -10.39322,5.13258 -0.56817,0.1222 -1.2969,0.22387 -2.05294,0.28644 -0.4189,0.0346 -4.33719,0.0696 -4.86806,0.0434 z"
       style="fill:#3772a3;fill-opacity:1" />
    <path
       id="path4369"
       d="m 138.69474,317.28973 c -1.04997,-0.0392 -1.4543,-0.0566 -1.92798,-0.0834 -0.16101,-0.009 -0.33703,-0.019 -0.39113,-0.022 -0.0541,-0.003 -0.0968,-0.007 -0.0947,-0.009 0.002,-0.002 0.12253,6.8e-4 0.26782,0.006 0.23696,0.009 0.30005,0.008 0.28763,-0.005 -0.005,-0.005 -0.20286,-0.0265 -0.32051,-0.0346 -0.0507,-0.004 -0.0837,-0.008 -0.0735,-0.009 0.0101,-0.002 0.13624,0.005 0.2802,0.0142 1.07616,0.0706 2.12526,0.10745 3.14745,0.11076 l 0.47676,0.002 -0.66725,0.005 c -0.36698,0.003 -0.66967,0.008 -0.67263,0.0111 -0.003,0.003 -0.004,0.007 -0.002,0.009 0.002,0.002 0.0828,0.007 0.17914,0.0113 l 0.17514,0.007 -0.12964,2e-4 c -0.0713,10e-5 -0.3122,-0.006 -0.53532,-0.0149 z"
       style="fill:#3772a3;fill-opacity:1" />
    <path
       id="path4371"
       d="m 139.43499,317.29879 c -0.10581,-0.004 -0.22814,-0.007 -0.27185,-0.009 -0.0625,-0.002 -0.0723,-0.004 -0.0461,-0.008 0.0263,-0.005 0.0178,-0.006 -0.0398,-0.007 -0.0753,-0.002 -0.10162,0.0115 -0.0376,0.0183 0.13625,0.0144 -1.28192,-0.0395 -2.05972,-0.0783 -0.39469,-0.0196 -0.4198,-0.022 -0.26607,-0.0236 0.063,-6.8e-4 0.1165,-0.005 0.11891,-0.008 0.003,-0.005 -0.0229,-0.005 -0.0561,-0.003 -0.11813,0.007 -0.60913,-0.0197 -1.02641,-0.0571 -1.33699,-0.11955 -2.41577,-0.33182 -3.31622,-0.65255 -0.11515,-0.0409 -0.30158,-0.1095 -0.41428,-0.1522 -0.19457,-0.0737 -0.20507,-0.0787 -0.20758,-0.10047 -0.003,-0.0267 -0.005,-0.0262 0.0392,-0.0107 0.0462,0.0163 0.044,0.008 -0.003,-0.0122 l -0.0376,-0.0161 0,-0.10575 c 0,-0.0974 0.002,-0.10528 0.0147,-0.0999 0.12082,0.0479 0.69138,0.23383 0.95981,0.31278 1.05527,0.31032 2.06508,0.46941 3.8267,0.60285 0.87808,0.0665 1.51073,0.089 2.75605,0.0979 1.49687,0.0106 2.85782,-0.0398 4.12572,-0.15287 l 0.0607,-0.005 0,0.13916 c 0,0.10572 -0.003,0.13918 -0.0104,0.13923 -0.006,5e-5 -0.0425,0.004 -0.0815,0.008 -0.13251,0.0149 -0.58006,0.0503 -0.8448,0.0669 -1.10179,0.0689 -2.20302,0.0847 -3.91033,0.056 -0.19307,-0.004 -0.20011,-0.003 -0.0628,0.003 0.0851,0.004 0.38059,0.01 0.65661,0.0138 l 0.50186,0.007 -0.32203,0.005 c -0.17712,0.003 0.0224,0.004 0.44332,0.002 1.60726,-0.006 2.72864,-0.0491 3.49499,-0.13268 0.1465,-0.016 0.13513,-0.0177 0.13513,0.02 l 0,0.0321 -0.0774,0.009 c -0.45556,0.0555 -0.73306,0.0728 -1.51604,0.0941 -0.39275,0.0107 -2.2634,0.0166 -2.52604,0.008 z m -0.95841,-0.0703 c -0.002,-0.002 -0.10324,-0.005 -0.22515,-0.007 -0.12191,-0.002 -0.17461,-0.002 -0.11711,9e-4 0.12588,0.006 0.34712,0.01 0.34226,0.005 z m -0.67682,-0.0265 c -0.33824,-0.0164 -0.87884,-0.0473 -1.17102,-0.0669 -1.45613,-0.0974 -2.41879,-0.23701 -3.37284,-0.48922 -0.26355,-0.0697 -0.47878,-0.13465 -0.83024,-0.25064 -0.31442,-0.10376 -0.35184,-0.11527 -0.3304,-0.10162 0.018,0.0115 0.58874,0.20165 0.75697,0.25223 0.86976,0.26147 1.66655,0.41178 2.78953,0.52623 0.32356,0.0329 1.06811,0.0946 1.08595,0.0899 0.008,-0.002 -0.005,-0.005 -0.0279,-0.005 -0.023,-6.8e-4 -0.0374,-0.004 -0.0321,-0.005 0.005,-0.002 0.13331,0.004 0.28439,0.0129 0.25352,0.0155 0.42409,0.025 0.75143,0.042 0.069,0.004 0.16876,0.006 0.22166,0.006 0.0556,7e-5 0.003,-0.005 -0.12546,-0.0106 z m -1.00572,-0.0346 c -0.008,-0.002 -0.0231,-0.002 -0.0334,-1.7e-4 -0.0103,0.002 -0.004,0.005 0.0146,0.005 0.0185,1e-4 0.0269,-0.002 0.0189,-0.004 l 0,0 z"
       style="fill:#3772a3;fill-opacity:1" />
    <path
       id="path4373"
       d="m 138.77002,316.97569 c -0.83876,-0.0172 -1.34355,-0.0361 -1.77743,-0.0663 -2.25358,-0.1574 -3.29666,-0.32933 -4.64639,-0.76584 -0.36607,-0.11838 -0.53081,-0.1787 -0.53408,-0.19554 -0.002,-0.0114 6.8e-4,-0.0139 0.0125,-0.0103 0.008,0.003 0.13217,0.0443 0.27478,0.0926 0.98949,0.33557 1.56148,0.47911 2.41831,0.60689 1.06009,0.1581 2.23921,0.25259 3.78804,0.30355 0.42155,0.0139 1.97935,0.0139 2.40058,-10e-6 1.06975,-0.0353 1.60578,-0.0579 2.12872,-0.0897 0.29073,-0.0177 0.66921,-0.0454 0.69633,-0.0508 0.0167,-0.004 0.023,-9e-4 0.023,0.007 0,0.015 -0.01,0.0163 -0.35131,0.0432 -0.6635,0.0523 -1.29879,0.0879 -2.02835,0.11379 -0.22987,0.008 -2.1218,0.0168 -2.40476,0.011 l 0,0 z"
       style="fill:#3772a3;fill-opacity:1" />
    <path
       id="path4375"
       d="m 140.8381,317.34264 c 0.0265,-0.002 0.0697,-0.002 0.0962,0 0.0265,0.002 0.004,0.003 -0.0482,0.003 -0.0529,0 -0.0745,-0.002 -0.0481,-0.003 z"
       style="fill:#3772a3;fill-opacity:1" />
    <path
       id="path4377"
       d="m 140.17941,317.33079 c -0.21621,-0.005 -0.49098,-0.0102 -0.61059,-0.0141 -0.15148,-0.005 -0.0271,-0.006 0.40985,-0.003 0.85467,0.005 2.10508,-0.0133 2.68496,-0.0403 0.23436,-0.011 0.35486,-0.0203 0.59386,-0.0462 0.26694,-0.0289 0.30185,-0.0319 0.29603,-0.0256 -0.006,0.007 -0.31773,0.0416 -0.57205,0.063 -0.78032,0.0659 -1.65698,0.0866 -2.80206,0.0662 z"
       style="fill:#3772a3;fill-opacity:1" />
    <path
       id="path4381"
       d="m 135.395,317.10556 c -0.96406,-0.0982 -1.71026,-0.23574 -2.45075,-0.45189 -0.19948,-0.0582 -0.65065,-0.21022 -0.87408,-0.29448 -0.24637,-0.0929 -0.2593,-0.0982 -0.2593,-0.10693 0,-0.004 0.0254,0.002 0.0565,0.0142 0.41772,0.15994 0.72539,0.26857 0.97174,0.34311 0.76189,0.23053 1.58797,0.38405 2.68976,0.49987 0.0599,0.006 0.088,0.0115 0.0627,0.0114 -0.0253,-10e-6 -0.11375,-0.007 -0.19656,-0.0153 z"
       style="fill:#3772a3;fill-opacity:1" />
    <path
       id="path4383"
       d="m 146.8813,316.12873 c 0,-0.004 0.0593,-0.0286 0.13173,-0.0551 0.71321,-0.26072 1.59607,-0.65728 2.85016,-1.28022 0.64024,-0.31802 0.96706,-0.49112 1.48881,-0.78855 0.9134,-0.52069 1.8193,-1.11019 2.65951,-1.73066 0.0642,-0.0473 0.12408,-0.0862 0.13309,-0.0862 0.0346,0 -0.64921,0.49831 -1.16151,0.84626 -1.32125,0.8974 -3.16922,1.88773 -4.89315,2.62223 -0.50427,0.21484 -1.20864,0.49005 -1.20864,0.47223 z"
       style="fill:#3772a3;fill-opacity:1" />
    <path
       id="path4385"
       d="m 146.8828,316.37759 c 0.002,-0.0151 0.0336,-0.0283 0.21597,-0.0908 1.73483,-0.59466 3.58017,-1.45812 5.25864,-2.46058 0.81115,-0.48445 1.50718,-0.94778 2.2118,-1.47236 0.21091,-0.15704 0.22466,-0.16581 0.2593,-0.16552 l 0.0365,2.9e-4 -0.0251,0.0212 c -0.0615,0.0519 -0.60582,0.45731 -0.80298,0.59798 -2.09907,1.49768 -4.38068,2.65658 -6.90809,3.50881 -0.12832,0.0433 -0.2368,0.0787 -0.24106,0.0787 -0.005,0 -0.007,-0.008 -0.005,-0.0177 z"
       style="fill:#3772a3;fill-opacity:1" />
    <path
       id="path4393"
       d="m 146.8828,316.37757 c 0.002,-0.0152 0.0335,-0.0283 0.21597,-0.0909 1.38823,-0.47643 2.88685,-1.14211 4.27001,-1.89674 1.1698,-0.63823 2.22318,-1.30943 3.22979,-2.05799 0.17801,-0.13238 0.19635,-0.14393 0.22842,-0.14393 0.0221,0 0.0329,0.003 0.0295,0.009 -0.007,0.0116 -0.62208,0.47127 -0.80695,0.60322 -1.99974,1.42729 -4.16516,2.5482 -6.54511,3.38804 -0.18158,0.0641 -0.60808,0.20731 -0.61729,0.20731 -0.005,0 -0.006,-0.008 -0.005,-0.0177 z"
       style="fill:#3772a3;fill-opacity:1" />
    <path
       id="path4395"
       d="m 146.8813,316.41257 c 0,-0.005 0.12891,-0.0504 0.28647,-0.10335 1.91011,-0.6418 3.75582,-1.50478 5.43892,-2.54307 0.74034,-0.45669 1.58007,-1.03724 2.19436,-1.51707 0.043,-0.0336 0.0825,-0.0609 0.0878,-0.0609 0.0123,2.4e-4 0.0181,-0.005 -0.31238,0.24519 -2.10023,1.58546 -4.45414,2.84821 -6.96751,3.73771 -0.33113,0.1172 -0.72769,0.24878 -0.72769,0.24146 z"
       style="fill:#3772a3;fill-opacity:1" />
    <path
       id="path4397"
       d="m 149.2749,315.46081 6.8e-4,-0.036 0.0814,-0.0366 c 0.91719,-0.41327 1.80076,-0.86614 2.66229,-1.36455 l 0.11164,-0.0646 0.0742,6.8e-4 0.0742,6.7e-4 -0.0157,0.009 c -0.009,0.005 -0.065,0.0382 -0.12515,0.0736 -0.34577,0.20399 -0.75345,0.43014 -1.13411,0.62912 -0.12777,0.0669 -0.39858,0.20479 -0.47463,0.24186 -0.0325,0.0158 -0.1004,0.0491 -0.15082,0.0739 -0.31714,0.15584 -0.76615,0.36281 -1.08171,0.49861 l -0.023,0.01 6.8e-4,-0.036 z"
       style="fill:#3772a3;fill-opacity:1" />
    <path
       id="path4403"
       d="m 149.27425,315.41894 c 0,-0.002 0.0327,-0.0185 0.0747,-0.0374 0.64869,-0.29098 1.33892,-0.63313 1.98438,-0.98368 0.22306,-0.12115 0.45964,-0.25389 0.68298,-0.38321 0.0533,-0.0308 0.0992,-0.0555 0.10203,-0.055 0.006,0.002 -0.0215,0.0174 -0.22542,0.13399 -0.80522,0.46081 -1.65286,0.8934 -2.50333,1.27755 -0.12031,0.0544 -0.11532,0.0523 -0.11532,0.0477 z"
       style="fill:#3772a3;fill-opacity:1" />
    <path
       id="path4413"
       d="m 152.11784,313.95945 c -6.7e-4,-0.002 0.0239,-0.0177 0.0553,-0.0361 0.39707,-0.23278 0.80079,-0.48354 1.19619,-0.74295 0.0313,-0.0206 0.0569,-0.0356 0.0569,-0.0334 0,0.005 -0.0245,0.0209 -0.14196,0.0975 -0.33367,0.21751 -0.72962,0.46281 -1.06608,0.66047 -0.10161,0.0597 -0.0983,0.0579 -0.10035,0.0545 z"
       style="fill:#3772a3;fill-opacity:1" />
    <path
       id="path4415"
       d="m 150.1599,314.68478 c 0,-6.7e-4 0.007,-0.005 0.0148,-0.009 0.0449,-0.0221 0.28031,-0.14505 0.41977,-0.21919 0.58175,-0.30934 1.16246,-0.64156 1.64954,-0.9437 0.0275,-0.017 0.0534,-0.033 0.0578,-0.0358 0.005,-0.003 0.009,-0.005 0.01,-0.005 0.002,6.8e-4 -0.005,0.005 -0.11582,0.0735 -0.58379,0.36069 -1.27671,0.75011 -1.9592,1.10111 -0.0755,0.0388 -0.0768,0.0394 -0.0768,0.0371 z"
       style="fill:#3772a3;fill-opacity:1" />
    <g
       style="display:inline;fill:#3772a3;fill-opacity:1;stroke:none"
       id="g3394"
       transform="matrix(0.054,0,0,-0.054,56.536867,493.9759)">
      <path
         style="fill:#3772a3;fill-opacity:1"
         id="path3396"
         d="M 1365,5154 C 884,5068 497,4712 375,4244 331,4075 328,3976 333,2665 c 3,-1204 4,-1232 24,-1325 111,-501 467,-858 973,-976 66,-15 150,-18 691,-21 560,-4 618,-3 633,12 15,15 16,208 16,2396 0,1622 -3,2386 -10,2400 -10,18 -27,19 -613,18 -476,-1 -619,-4 -682,-15 z m 905,-2400 0,-2026 -407,5 c -375,4 -415,6 -490,25 -322,83 -561,331 -628,654 -22,101 -22,2589 -1,2688 60,281 255,514 518,619 132,53 193,59 621,60 l 387,1 0,-2026 z" />
      <path
         style="fill:#3772a3;fill-opacity:1"
         id="path3398"
         d="m 1451,4169 c -63,-12 -159,-60 -210,-105 -105,-91 -157,-220 -149,-372 4,-79 9,-100 41,-164 47,-97 118,-168 215,-216 67,-33 84,-37 171,-40 79,-3 107,0 160,18 217,73 348,284 311,500 -43,257 -287,429 -539,379 z" />
      <path
         style="fill:#fdd343;fill-opacity:1"
         id="path3400"
         d="m 3157,5163 c -4,-3 -7,-1087 -7,-2409 0,-2181 1,-2402 16,-2408 27,-10 803,-6 899,4 406,46 764,293 959,660 25,47 58,126 75,175 63,188 61,138 61,1575 0,1147 -2,1318 -16,1391 -99,521 -496,914 -1018,1004 -70,12 -178,15 -526,15 -240,0 -440,-3 -443,-7 z M 4225,2985 c 156,-41 284,-160 336,-312 33,-94 32,-232 -1,-318 -61,-158 -181,-269 -335,-310 -250,-65 -516,86 -589,334 -22,76 -21,204 4,282 75,245 335,389 585,324 z" />
    </g>
  </g>
</svg>
